<svg width="163" height="70" viewBox="0 0 163 70" fill="none" xmlns="http://www.w3.org/2000/svg">
<path d="M52.1707 24.1887L33.4167 16.3333L17.9667 29.1533L36.296 36.5607L52.1707 24.1887Z" fill="url(#paint0_linear_21_13)"/>
<path d="M36.082 53.6667L17.9787 46.376L31.2154 35.2787L36.082 37.2347L36.1872 53.6667" fill="url(#paint1_linear_21_13)"/>
<path d="M36.8613 37.0827L38.572 35.7149L52.0733 41.3727L36.8613 53.5141V37.0827Z" fill="url(#paint2_linear_21_13)"/>
<path d="M82.067 39.71C82.067 40.6047 81.836 41.4003 81.374 42.097C80.9193 42.7863 80.2593 43.3253 79.394 43.714C78.536 44.1027 77.4983 44.297 76.281 44.297C75.049 44.297 73.9673 44.1137 73.036 43.747C72.112 43.373 71.331 42.878 70.693 42.262L72.09 40.7C72.6327 41.1913 73.245 41.58 73.927 41.866C74.609 42.1447 75.39 42.284 76.27 42.284C76.842 42.284 77.3663 42.196 77.843 42.02C78.3197 41.8367 78.701 41.5653 78.987 41.206C79.273 40.8393 79.416 40.381 79.416 39.831C79.416 39.3837 79.3243 39.006 79.141 38.698C78.9577 38.39 78.6387 38.1113 78.184 37.862C77.7367 37.6127 77.1097 37.3707 76.303 37.136C75.2323 36.8133 74.334 36.454 73.608 36.058C72.882 35.662 72.332 35.189 71.958 34.639C71.5913 34.0817 71.408 33.407 71.408 32.615C71.408 31.7937 71.6317 31.075 72.079 30.459C72.5337 29.843 73.1533 29.3663 73.938 29.029C74.73 28.6843 75.6247 28.512 76.622 28.512C77.722 28.512 78.6827 28.6697 79.504 28.985C80.3253 29.3003 81.0587 29.7513 81.704 30.338L80.362 31.856C79.8267 31.3867 79.251 31.0457 78.635 30.833C78.0263 30.6203 77.4067 30.514 76.776 30.514C76.2627 30.514 75.797 30.5873 75.379 30.734C74.961 30.8807 74.631 31.097 74.389 31.383C74.147 31.669 74.026 32.032 74.026 32.472C74.026 32.8607 74.1323 33.1943 74.345 33.473C74.565 33.7517 74.9317 34.012 75.445 34.254C75.9657 34.4887 76.677 34.7417 77.579 35.013C78.4297 35.2623 79.1923 35.5703 79.867 35.937C80.549 36.3037 81.0843 36.784 81.473 37.378C81.869 37.972 82.067 38.7493 82.067 39.71ZM89.8024 32.076C90.9391 32.076 91.8961 32.329 92.6734 32.835C93.4507 33.341 94.0374 34.0487 94.4334 34.958C94.8367 35.8673 95.0384 36.938 95.0384 38.17C95.0384 39.3947 94.8331 40.469 94.4224 41.393C94.0191 42.3097 93.4251 43.0247 92.6404 43.538C91.8631 44.044 90.9134 44.297 89.7914 44.297C88.6694 44.297 87.7161 44.0513 86.9314 43.56C86.1541 43.0613 85.5601 42.3537 85.1494 41.437C84.7461 40.5203 84.5444 39.4387 84.5444 38.192C84.5444 36.982 84.7461 35.9187 85.1494 35.002C85.5601 34.0853 86.1577 33.3703 86.9424 32.857C87.7271 32.3363 88.6804 32.076 89.8024 32.076ZM89.8024 33.99C88.9151 33.99 88.2477 34.331 87.8004 35.013C87.3531 35.6877 87.1294 36.7473 87.1294 38.192C87.1294 39.6293 87.3494 40.689 87.7894 41.371C88.2367 42.053 88.9041 42.394 89.7914 42.394C90.6787 42.394 91.3424 42.053 91.7824 41.371C92.2297 40.689 92.4534 39.622 92.4534 38.17C92.4534 36.74 92.2334 35.6877 91.7934 35.013C91.3534 34.331 90.6897 33.99 89.8024 33.99ZM103.445 27.72V40.832C103.445 41.3673 103.606 41.7487 103.929 41.976C104.259 42.196 104.684 42.306 105.205 42.306C105.542 42.306 105.861 42.2693 106.162 42.196C106.462 42.1227 106.756 42.031 107.042 41.921L107.669 43.637C107.324 43.813 106.899 43.967 106.393 44.099C105.894 44.231 105.322 44.297 104.677 44.297C103.511 44.297 102.601 43.9707 101.949 43.318C101.303 42.658 100.981 41.756 100.981 40.612V29.535H97.4718V27.72H103.445ZM115.756 42.405C116.526 42.405 117.139 42.2693 117.593 41.998C118.048 41.7193 118.275 41.338 118.275 40.854C118.275 40.5387 118.209 40.271 118.077 40.051C117.945 39.8237 117.681 39.6183 117.285 39.435C116.889 39.2443 116.288 39.0463 115.481 38.841C114.719 38.643 114.048 38.4083 113.468 38.137C112.896 37.8657 112.453 37.5137 112.137 37.081C111.822 36.6483 111.664 36.091 111.664 35.409C111.664 34.7417 111.851 34.1587 112.225 33.66C112.599 33.1613 113.135 32.7727 113.831 32.494C114.535 32.2153 115.36 32.076 116.306 32.076C117.282 32.076 118.132 32.2043 118.858 32.461C119.584 32.7177 120.204 33.0367 120.717 33.418L119.683 34.969C119.229 34.6683 118.73 34.4227 118.187 34.232C117.652 34.0413 117.047 33.946 116.372 33.946C115.588 33.946 115.023 34.0633 114.678 34.298C114.341 34.5327 114.172 34.8443 114.172 35.233C114.172 35.519 114.257 35.761 114.425 35.959C114.601 36.1497 114.902 36.3293 115.327 36.498C115.753 36.6593 116.354 36.85 117.131 37.07C117.887 37.2753 118.543 37.5173 119.1 37.796C119.665 38.0747 120.101 38.445 120.409 38.907C120.725 39.3617 120.882 39.9557 120.882 40.689C120.882 41.525 120.64 42.2107 120.156 42.746C119.68 43.274 119.049 43.6663 118.264 43.923C117.487 44.1723 116.651 44.297 115.756 44.297C114.678 44.297 113.747 44.143 112.962 43.835C112.178 43.5197 111.518 43.1273 110.982 42.658L112.291 41.162C112.746 41.5287 113.267 41.8293 113.853 42.064C114.44 42.2913 115.074 42.405 115.756 42.405ZM126.77 38.984C126.821 39.776 126.99 40.425 127.276 40.931C127.562 41.4297 127.936 41.7963 128.398 42.031C128.867 42.2657 129.38 42.383 129.938 42.383C130.51 42.383 131.038 42.295 131.522 42.119C132.006 41.943 132.493 41.6937 132.985 41.371L134.052 42.845C133.509 43.285 132.875 43.637 132.149 43.901C131.423 44.165 130.645 44.297 129.817 44.297C128.614 44.297 127.595 44.0403 126.759 43.527C125.93 43.0137 125.299 42.2987 124.867 41.382C124.434 40.4653 124.218 39.4057 124.218 38.203C124.218 37.037 124.43 35.9957 124.856 35.079C125.281 34.155 125.89 33.4253 126.682 32.89C127.474 32.3473 128.42 32.076 129.52 32.076C130.554 32.076 131.441 32.3107 132.182 32.78C132.93 33.2493 133.505 33.9167 133.909 34.782C134.319 35.64 134.525 36.674 134.525 37.884C134.525 38.082 134.517 38.28 134.503 38.478C134.495 38.6687 134.484 38.8373 134.47 38.984H126.77ZM129.542 33.902C128.772 33.902 128.134 34.177 127.628 34.727C127.129 35.277 126.839 36.135 126.759 37.301H132.138C132.116 36.2083 131.881 35.3687 131.434 34.782C130.994 34.1953 130.363 33.902 129.542 33.902ZM137.915 44V32.384H140.038L140.225 33.891C140.709 33.297 141.281 32.846 141.941 32.538C142.601 32.23 143.279 32.076 143.976 32.076C145.061 32.076 145.872 32.3803 146.407 32.989C146.95 33.5903 147.221 34.4373 147.221 35.53V44H144.757V36.751C144.757 36.0763 144.717 35.5337 144.636 35.123C144.555 34.7123 144.394 34.4153 144.152 34.232C143.917 34.0487 143.565 33.957 143.096 33.957C142.722 33.957 142.366 34.0377 142.029 34.199C141.692 34.3603 141.384 34.573 141.105 34.837C140.826 35.0937 140.584 35.3687 140.379 35.662V44H137.915ZM157.926 27.445L160.39 27.72V44H158.223L158.047 42.57C157.651 43.12 157.178 43.5453 156.628 43.846C156.078 44.1467 155.462 44.297 154.78 44.297C153.783 44.297 152.962 44.044 152.316 43.538C151.671 43.0247 151.191 42.3097 150.875 41.393C150.567 40.469 150.413 39.402 150.413 38.192C150.413 37.0113 150.597 35.9627 150.963 35.046C151.33 34.122 151.854 33.396 152.536 32.868C153.218 32.34 154.04 32.076 155 32.076C155.609 32.076 156.155 32.186 156.639 32.406C157.123 32.6187 157.552 32.9303 157.926 33.341V27.445ZM155.649 33.968C154.821 33.968 154.175 34.3127 153.713 35.002C153.251 35.684 153.02 36.7473 153.02 38.192C153.02 39.182 153.116 39.9887 153.306 40.612C153.497 41.228 153.772 41.6827 154.131 41.976C154.491 42.262 154.923 42.405 155.429 42.405C155.987 42.405 156.471 42.2437 156.881 41.921C157.292 41.5983 157.64 41.2097 157.926 40.755V35.255C157.64 34.8443 157.307 34.529 156.925 34.309C156.544 34.0817 156.119 33.968 155.649 33.968Z" fill="url(#paint3_linear_21_13)"/>
<defs>
<linearGradient id="paint0_linear_21_13" x1="24.452" y1="16.1437" x2="35.3074" y2="43.5565" gradientUnits="userSpaceOnUse">
<stop stop-color="#9945FF"/>
<stop offset="1" stop-color="#14F195"/>
</linearGradient>
<linearGradient id="paint1_linear_21_13" x1="21.4312" y1="35.1063" x2="34.8082" y2="54.8883" gradientUnits="userSpaceOnUse">
<stop stop-color="#9945FF"/>
<stop offset="1" stop-color="#14F195"/>
</linearGradient>
<linearGradient id="paint2_linear_21_13" x1="39.7456" y1="35.5481" x2="53.2928" y2="52.8385" gradientUnits="userSpaceOnUse">
<stop stop-color="#9945FF"/>
<stop offset="1" stop-color="#14F195"/>
</linearGradient>
<linearGradient id="paint3_linear_21_13" x1="72.3988" y1="34.1139" x2="167.243" y2="36.34" gradientUnits="userSpaceOnUse">
<stop stop-color="#9945FF"/>
<stop offset="1" stop-color="#14F195"/>
</linearGradient>
</defs>
</svg>
